<svg width="422" height="302" viewBox="0 0 422 302" fill="none" xmlns="http://www.w3.org/2000/svg">
<g filter="url(#filter0_dd_811_86)">
<rect x="15" y="5" width="392" height="272" rx="20" fill="#211C5C"/>
</g>
<mask id="mask0_811_86" style="mask-type:alpha" maskUnits="userSpaceOnUse" x="15" y="5" width="392" height="272">
<rect x="15" y="5" width="392" height="272" rx="20" fill="#211C5C"/>
</mask>
<g mask="url(#mask0_811_86)">
<path opacity="0.16" d="M-29.136 44.9497C-170.266 -0.934093 -274.948 44.3505 -274.948 44.3505L-293.454 268.96L-9.54761 371.279L609.908 343.419C609.908 343.419 539.493 233.394 434.129 210.943C328.764 188.492 245.784 230.815 163.353 176.826C84.6664 125.284 84.3003 81.8298 -29.1194 44.9497H-29.136Z" fill="#0ECCA0"/>
<path opacity="0.24" d="M-26.8559 169.42C-122.817 157.304 -185.177 196.464 -185.177 196.464L-172.146 334.864L465.783 326.06L417.719 279.328C417.719 279.328 360.152 220.396 289.82 218.516C219.489 216.635 170.776 251.585 111.694 228.002C55.3088 205.501 50.2495 179.156 -26.8726 169.42H-26.8559Z" fill="#0ECCA0"/>
<path opacity="0.5" d="M103.239 182.285C46.1883 161.049 2.35153 176.177 2.35153 176.177C2.35153 176.177 -52.8688 197.729 -61.7726 214.006C-75.586 239.253 -42.0344 313.762 -42.0344 313.762H359.786C359.786 313.762 332.991 269.243 290.186 257.992C247.365 246.725 212.498 261.221 179.712 238.237C148.407 216.286 149.09 199.36 103.256 182.301L103.239 182.285Z" fill="#08C79B"/>
<path opacity="0.9" d="M77.2425 226.354C38.615 209.645 7.77613 218.266 7.77613 218.266C7.77613 218.266 -36.2603 228.451 -44.6981 239.852C-57.5795 257.243 -52.8364 326.06 -52.8364 326.06H249.694C249.694 326.06 232.801 294.639 203.627 285.286C174.469 275.933 149.854 284.47 128.036 267.512C107.199 251.318 108.281 239.785 77.2425 226.354Z" fill="#0AC297"/>
</g>
<defs>
<filter id="filter0_dd_811_86" x="0" y="0" width="422" height="302" filterUnits="userSpaceOnUse" color-interpolation-filters="sRGB">
<feFlood flood-opacity="0" result="BackgroundImageFix"/>
<feColorMatrix in="SourceAlpha" type="matrix" values="0 0 0 0 0 0 0 0 0 0 0 0 0 0 0 0 0 0 127 0" result="hardAlpha"/>
<feOffset dy="4"/>
<feGaussianBlur stdDeviation="3"/>
<feColorMatrix type="matrix" values="0 0 0 0 0 0 0 0 0 0 0 0 0 0 0 0 0 0 0.05 0"/>
<feBlend mode="normal" in2="BackgroundImageFix" result="effect1_dropShadow_811_86"/>
<feColorMatrix in="SourceAlpha" type="matrix" values="0 0 0 0 0 0 0 0 0 0 0 0 0 0 0 0 0 0 127 0" result="hardAlpha"/>
<feOffset dy="10"/>
<feGaussianBlur stdDeviation="7.5"/>
<feColorMatrix type="matrix" values="0 0 0 0 0 0 0 0 0 0 0 0 0 0 0 0 0 0 0.1 0"/>
<feBlend mode="normal" in2="effect1_dropShadow_811_86" result="effect2_dropShadow_811_86"/>
<feBlend mode="normal" in="SourceGraphic" in2="effect2_dropShadow_811_86" result="shape"/>
</filter>
</defs>
</svg>
