<svg width="74" height="32" viewBox="0 0 74 32" fill="none" xmlns="http://www.w3.org/2000/svg">
<rect width="74" height="32" rx="16" fill="white"/>
<path d="M16.3984 22L12.3359 10.9609V10.7969H14.3984L17.4375 19.6484H17.5078L20.4766 10.7969H22.5781V10.9609L18.5156 22H16.3984ZM24.9844 12.4766C24.6094 12.4766 24.3203 12.375 24.1172 12.1719C23.9193 11.9688 23.8203 11.6875 23.8203 11.3281C23.8203 10.974 23.9193 10.6979 24.1172 10.5C24.3203 10.2969 24.6094 10.1953 24.9844 10.1953C25.3542 10.1953 25.6406 10.2969 25.8438 10.5C26.0521 10.6979 26.1562 10.974 26.1562 11.3281C26.1562 11.6823 26.0521 11.9635 25.8438 12.1719C25.6406 12.375 25.3542 12.4766 24.9844 12.4766ZM24.0781 22V13.7422H25.8984V22H24.0781ZM28.0781 22V13.7422H29.6094L29.7734 15.0547H29.8359C30.0078 14.6172 30.2786 14.2708 30.6484 14.0156C31.0234 13.7604 31.4661 13.6328 31.9766 13.6328H32.6484V15.3281H31.9453C31.2578 15.3281 30.7344 15.5573 30.375 16.0156C30.0156 16.4688 29.8359 17.1198 29.8359 17.9688V22H28.0781ZM37.5859 22.1406C36.7422 22.1406 36.1224 21.9297 35.7266 21.5078C35.3359 21.0807 35.1406 20.4922 35.1406 19.7422V15.2969H33.7734V13.7422H35.2188V12L36.8047 11.5547H36.9609V13.7422H38.9609V15.2969H36.9609V19.4219C36.9609 19.8125 37.0469 20.099 37.2188 20.2812C37.3906 20.4583 37.6615 20.5469 38.0312 20.5469C38.3021 20.5469 38.5703 20.5078 38.8359 20.4297H38.9922V21.9688C38.612 22.0833 38.1432 22.1406 37.5859 22.1406ZM46.0703 13.7422H47.8984V18.8672C47.8984 19.8255 47.5859 20.6094 46.9609 21.2188C46.3411 21.8229 45.4688 22.125 44.3438 22.125C43.224 22.125 42.3516 21.8203 41.7266 21.2109C41.1016 20.6016 40.7891 19.8203 40.7891 18.8672V13.7422H42.6172V18.5781C42.6172 19.8229 43.1927 20.4453 44.3438 20.4453C45.4948 20.4453 46.0703 19.8229 46.0703 18.5781V13.7422ZM52.4766 22.1406C51.5859 22.1406 50.8828 21.8984 50.3672 21.4141C49.8516 20.9297 49.5938 20.3151 49.5938 19.5703C49.5938 18.8047 49.8724 18.1875 50.4297 17.7188C50.9922 17.2448 51.8385 17.0078 52.9688 17.0078C53.625 17.0078 54.2656 17.099 54.8906 17.2812V16.5156C54.8906 16.1042 54.7526 15.7656 54.4766 15.5C54.2057 15.2344 53.7995 15.1016 53.2578 15.1016C52.7734 15.1016 52.3958 15.2188 52.125 15.4531C51.8542 15.6875 51.7135 15.9818 51.7031 16.3359H49.9766C49.9766 15.5339 50.2734 14.8776 50.8672 14.3672C51.4609 13.8568 52.2682 13.6016 53.2891 13.6016C54.3516 13.6016 55.1849 13.8724 55.7891 14.4141C56.3932 14.9557 56.6953 15.6484 56.6953 16.4922V22H55.0938L54.9688 21.0234H54.9062C54.6667 21.3776 54.3385 21.6536 53.9219 21.8516C53.5052 22.0443 53.0234 22.1406 52.4766 22.1406ZM52.8906 20.6875C53.4844 20.6875 53.9661 20.513 54.3359 20.1641C54.7057 19.8151 54.8906 19.388 54.8906 18.8828V18.6094C54.3333 18.4167 53.7344 18.3203 53.0938 18.3203C52.5521 18.3203 52.1354 18.4245 51.8438 18.6328C51.5573 18.8411 51.4141 19.1328 51.4141 19.5078C51.4141 19.8568 51.5391 20.1406 51.7891 20.3594C52.0443 20.5781 52.4115 20.6875 52.8906 20.6875ZM58.875 22V10.1562H60.6953V22H58.875Z" fill="#211C5C"/>
</svg>
